<?xml version="1.0" standalone="no"?>
<!DOCTYPE svg PUBLIC "-//W3C//DTD SVG 20010904//EN"
 "http://www.w3.org/TR/2001/REC-SVG-20010904/DTD/svg10.dtd">
<svg version="1.0" xmlns="http://www.w3.org/2000/svg"
 width="62.000000pt" height="37.000000pt" viewBox="0 0 62.000000 37.000000"
 preserveAspectRatio="xMidYMid meet">

<g transform="translate(0.000000,37.000000) scale(0.100000,-0.100000)"
fill="#000000" stroke="none">
<path d="M334 350 c-184 -48 -291 -153 -224 -220 27 -27 45 -26 26 2 -24 34
-20 54 21 99 57 63 145 102 278 124 79 13 80 13 25 13 -30 1 -87 -8 -126 -18z"/>
<path d="M380 291 c-28 -6 -18 -8 47 -12 62 -3 88 -9 110 -25 54 -40 39 -98
-39 -154 -52 -38 -36 -39 23 -2 55 36 99 86 99 116 0 63 -117 100 -240 77z"/>
<path d="M87 260 c-47 -30 -87 -81 -87 -112 0 -9 13 -28 30 -41 37 -32 117
-43 197 -29 l58 9 -75 2 c-77 1 -134 20 -153 52 -16 26 2 71 44 111 22 21 38
38 36 38 -2 0 -24 -13 -50 -30z"/>
<path d="M483 242 c71 -78 -100 -203 -315 -231 l-63 -8 55 -2 c113 -2 259 50
331 119 47 45 55 98 17 124 -31 22 -45 20 -25 -2z"/>
</g>
</svg>
